<svg width="40" height="30" viewBox="0 0 40 30" fill="none" xmlns="http://www.w3.org/2000/svg">
<g clip-path="url(#clip0_429_1812)">
<path d="M37.9698 14.1902H37.2354V7.57013C37.2354 7.02869 36.6347 6.58822 35.8963 6.58822H32.4994C32.2266 6.58822 31.9723 6.53583 31.764 6.43669C29.2951 5.26219 24.8974 4.56104 20 4.56104C15.1026 4.56104 10.7049 5.26219 8.23603 6.43669C8.02773 6.53576 7.77348 6.58822 7.50056 6.58822H4.10367C3.36527 6.58822 2.76458 7.02869 2.76458 7.57013V14.1902H2.03024C0.910756 14.1902 0 14.858 0 15.6789V16.6925C0 17.3472 0.579698 17.9042 1.38229 18.103V22.2672C1.38229 22.922 1.96199 23.479 2.76458 23.6777V24.2944C2.76458 24.5568 3.05469 24.7695 3.41253 24.7695C3.77037 24.7695 4.06048 24.5568 4.06048 24.2944V23.7559H35.9395V24.2944C35.9395 24.5568 36.2296 24.7695 36.5875 24.7695C36.9453 24.7695 37.2354 24.5568 37.2354 24.2944V23.6777C38.038 23.479 38.6177 22.922 38.6177 22.2672V18.103C39.4203 17.9042 40 17.3472 40 16.6925V15.6789C40 14.858 39.0892 14.1902 37.9698 14.1902ZM4.06048 7.57013C4.06048 7.55271 4.07983 7.53846 4.10367 7.53846H7.50056C8.02436 7.53846 8.52259 7.43317 8.94134 7.23388C11.1749 6.17138 15.4123 5.51128 20 5.51128C24.5877 5.51128 28.8251 6.17138 31.0586 7.23388C31.4774 7.43317 31.9755 7.53846 32.4994 7.53846H35.8963C35.9202 7.53846 35.9395 7.55271 35.9395 7.57013V14.1902H34.0664C34.3226 13.8859 34.4708 13.5279 34.4708 13.1449V11.1177C34.4708 10.0174 33.25 9.1222 31.7495 9.1222H23.4557C21.9552 9.1222 20.7343 10.0174 20.7343 11.1177V13.1449C20.7343 13.5279 20.8826 13.8859 21.1387 14.1902H18.8612C19.1173 13.8859 19.2656 13.5279 19.2656 13.1449V11.1177C19.2656 10.0174 18.0448 9.1222 16.5442 9.1222H8.25045C6.74998 9.1222 5.52916 10.0174 5.52916 11.1177V13.1449C5.52916 13.5279 5.67741 13.8859 5.93356 14.1902H4.06048V7.57013ZM22.0302 13.1449V11.1177C22.0302 10.5413 22.6697 10.0724 23.4557 10.0724H31.7495C32.5355 10.0724 33.1749 10.5413 33.1749 11.1177V13.1449C33.1749 13.7212 32.5355 14.1902 31.7495 14.1902H23.4557C22.6697 14.1902 22.0302 13.7212 22.0302 13.1449ZM6.82505 13.1449V11.1177C6.82505 10.5413 7.46454 10.0724 8.25054 10.0724H16.5443C17.3303 10.0724 17.9698 10.5413 17.9698 11.1177V13.1449C17.9698 13.7212 17.3303 14.1902 16.5443 14.1902H8.25054C7.46454 14.1902 6.82505 13.7212 6.82505 13.1449ZM36.5875 22.8057H3.41253C3.0076 22.8057 2.67819 22.5641 2.67819 22.2672V18.1812H37.3218V22.2672C37.3218 22.5641 36.9924 22.8057 36.5875 22.8057ZM38.7041 16.6925C38.7041 16.9894 38.3747 17.2309 37.9698 17.2309H2.03024C1.62531 17.2309 1.2959 16.9894 1.2959 16.6925V15.6789C1.2959 15.3819 1.62531 15.1404 2.03024 15.1404H3.41253H8.25054H16.5443H23.4557H31.7495H36.5875H37.9698C38.3747 15.1404 38.7041 15.3819 38.7041 15.6789V16.6925Z" fill="#4D4949"/>
</g>
<defs>
<clipPath id="clip0_429_1812">
<rect width="40" height="29.3308" fill="white"/>
</clipPath>
</defs>
</svg>
