<svg width="73" height="60" viewBox="0 0 73 60" fill="none" xmlns="http://www.w3.org/2000/svg">
<path d="M51.4202 30.5864C50.9499 30.2746 50.2616 30.3356 49.8826 30.7221C49.6603 30.9489 49.4222 31.1698 49.175 31.3788C48.7538 31.7349 48.7634 32.3043 49.1962 32.6506C49.4087 32.8209 49.6838 32.9057 49.9587 32.9057C50.2436 32.9057 50.5282 32.8147 50.7425 32.6335C51.0371 32.3845 51.3205 32.1212 51.5853 31.851C51.9642 31.4643 51.8904 30.8981 51.4202 30.5864Z" fill="#4E6682"/>
<path d="M53.5099 25.5052C52.9127 25.4325 52.356 25.7705 52.2666 26.2618C52.0953 27.2042 51.7495 28.1161 51.2389 28.9721C50.973 29.418 51.1969 29.9569 51.7392 30.1756C51.8942 30.2382 52.0585 30.2678 52.22 30.2678C52.6241 30.2678 53.0126 30.0827 53.2025 29.7641C53.8122 28.7421 54.225 27.6532 54.4297 26.5278C54.5191 26.0366 54.1073 25.5789 53.5099 25.5052Z" fill="#4E6682"/>
<path d="M29.6196 11.3583C27.057 10.6482 26.541 10.2243 25.6763 8.11997C25.523 7.74661 25.097 7.49536 24.6178 7.49536C24.1386 7.49536 23.7125 7.74661 23.5593 8.11985C22.6944 10.2245 22.1784 10.6481 19.6158 11.3583C19.1614 11.4842 18.8555 11.8345 18.8555 12.2285C18.8555 12.6224 19.1614 12.9726 19.6158 13.0986C22.1785 13.8091 22.6945 14.2327 23.5593 16.3371C23.7125 16.7103 24.1386 16.9616 24.6178 16.9616C25.097 16.9616 25.523 16.7103 25.6763 16.3371C26.5412 14.2325 27.057 13.8088 29.6196 13.0986C30.074 12.9727 30.3799 12.6224 30.3799 12.2285C30.3799 11.8342 30.074 11.4842 29.6196 11.3583ZM24.6176 13.761C24.1309 13.1055 23.5503 12.6283 22.7524 12.2285C23.5503 11.8286 24.1312 11.3517 24.6176 10.696C25.1043 11.3515 25.6848 11.8286 26.4827 12.2285C25.6848 12.6282 25.1043 13.1053 24.6176 13.761Z" fill="#4E6682"/>
<path d="M40.9539 3.15926C38.9266 2.59735 38.5516 2.28938 37.8674 0.624493C37.714 0.251251 37.2881 0 36.8087 0C36.3295 0 35.9035 0.25125 35.7502 0.624611C35.0661 2.2895 34.6912 2.59735 32.6637 3.15915C32.2093 3.28501 31.9033 3.6354 31.9033 4.02938C31.9033 4.42325 32.2092 4.77352 32.6635 4.8995C34.691 5.46153 35.0661 5.7695 35.7502 7.43439C35.9035 7.80763 36.3295 8.05888 36.8087 8.05888C37.2879 8.05888 37.714 7.80763 37.8672 7.43439C38.5515 5.7695 38.9264 5.46153 40.9539 4.8995C41.4083 4.77364 41.7141 4.42325 41.7141 4.02938C41.7143 3.63528 41.4083 3.28512 40.9539 3.15926ZM36.8089 4.97544C36.4885 4.59739 36.1178 4.2927 35.6577 4.0295C36.1178 3.76641 36.4886 3.46149 36.8089 3.08356C37.1292 3.46149 37.5001 3.7663 37.9602 4.0295C37.5001 4.29259 37.1291 4.59751 36.8089 4.97544Z" fill="#4E6682"/>
<path d="M53.3844 12.0369C51.3571 11.475 50.982 11.1671 50.2979 9.50218C50.1446 9.12894 49.7186 8.87769 49.2394 8.87769C48.7602 8.87769 48.3342 9.12894 48.1809 9.50218C47.4967 11.1671 47.1217 11.475 45.0942 12.0369C44.6398 12.1628 44.334 12.5131 44.334 12.9071C44.3338 13.3011 44.6398 13.6512 45.0942 13.7772C47.1215 14.3392 47.4967 14.6471 48.1809 16.312C48.3343 16.6852 48.7603 16.9365 49.2394 16.9365C49.7186 16.9365 50.1446 16.6852 50.2979 16.3118C50.982 14.6471 51.357 14.3392 53.3844 13.7772C53.8388 13.6513 54.1448 13.3011 54.1448 12.9071C54.1448 12.5128 53.8388 12.1628 53.3844 12.0369ZM49.2392 13.8529C48.9192 13.4748 48.548 13.1702 48.0881 12.907C48.548 12.6439 48.919 12.3389 49.2392 11.961C49.5593 12.3389 49.9305 12.6437 50.3904 12.907C49.9303 13.1702 49.5595 13.475 49.2392 13.8529Z" fill="#4E6682"/>
<path d="M67.8245 50.7877H63.8289C63.9591 50.654 64.0864 50.518 64.2073 50.3777H67.8245V50.3779C69.6775 50.3779 71.1851 49.1395 71.1851 47.6173C71.1851 46.0949 69.6776 44.8564 67.8245 44.8564H63.7589C63.9102 44.7044 64.0574 44.5495 64.1966 44.389H67.8245C69.6775 44.389 71.1851 43.1507 71.1851 41.6284C71.1851 40.1061 69.6776 38.8677 67.8245 38.8677H46.6187C46.6435 38.7422 46.6578 38.6137 46.6578 38.4825V37.7196C53.1811 35.9215 57.8955 30.8424 57.8955 24.8732C57.8955 24.4057 57.6752 23.9804 57.3178 23.6606C57.6936 22.526 57.8955 21.3328 57.8955 20.1015C57.8955 19.1116 56.9168 18.3064 55.7139 18.3064H17.2872C16.084 18.3064 15.1052 19.1116 15.1052 20.1015C15.1052 21.333 15.3071 22.5261 15.683 23.6606C15.3256 23.9803 15.1052 24.4055 15.1052 24.8732C15.1052 30.8426 19.8197 35.9217 26.343 37.7196V38.4825C26.343 38.6137 26.3572 38.7422 26.3821 38.8677H5.176C3.32305 38.8677 1.81543 40.1061 1.81543 41.6284C1.81543 43.1507 3.32291 44.389 5.176 44.389H8.80391C8.94292 44.5498 9.09035 44.7046 9.24162 44.8564H5.176C3.32305 44.8564 1.81543 46.0949 1.81543 47.6173C1.81543 49.1395 3.32291 50.3779 5.176 50.3779H8.79307C8.91398 50.5181 9.0413 50.6541 9.17162 50.7878H5.176C3.32305 50.7878 1.81543 52.0262 1.81543 53.5485C1.81543 55.0706 3.32291 56.309 5.176 56.309H8.79393C10.7524 58.5815 13.9648 59.9998 17.4711 59.9998H55.529C59.0351 59.9998 62.2476 58.5815 64.2062 56.3088H67.8242C69.6772 56.3088 71.1848 55.0705 71.1848 53.5484C71.1849 52.0261 69.6775 50.7877 67.8245 50.7877ZM17.3399 24.9145H23.9859C24.603 24.9145 25.1033 24.5034 25.1033 23.9961C25.1033 23.4888 24.603 23.0777 23.9859 23.0777H17.8063C17.5065 22.1397 17.3444 21.1562 17.3399 20.1426H55.6606C55.6563 21.1562 55.4942 22.1397 55.1942 23.0777H29.4982C28.8811 23.0777 28.3808 23.4888 28.3808 23.9961C28.3808 24.5034 28.8811 24.9145 29.4982 24.9145H55.6606C55.6334 31.3503 49.2691 36.5789 41.4498 36.5789H40.3738C39.7567 36.5789 39.2564 36.99 39.2564 37.4973C39.2564 38.0046 39.7567 38.4157 40.3738 38.4157H41.4498C42.4648 38.4157 43.4582 38.339 44.4228 38.1935V38.4824C44.4228 38.6313 44.3518 38.7658 44.2382 38.8676H28.7622C28.6487 38.7658 28.5777 38.6311 28.5777 38.4824V38.1935C29.5424 38.339 30.5357 38.4157 31.5507 38.4157H35.7552C36.3723 38.4157 36.8726 38.0046 36.8726 37.4973C36.8726 36.99 36.3723 36.5789 35.7552 36.5789H31.5506C23.7314 36.5788 17.3672 31.3502 17.3399 24.9145ZM5.176 42.5521C4.55522 42.5521 4.0502 42.1376 4.0502 41.6282C4.0502 41.1186 4.55522 40.7041 5.176 40.7041H67.8244C68.4452 40.7041 68.9502 41.1186 68.9502 41.6282C68.9502 42.1376 68.4452 42.5521 67.8244 42.5521H5.176ZM61.2358 44.3889C61.0173 44.555 60.7873 44.7104 60.549 44.8563H12.4513C12.213 44.7104 11.9831 44.555 11.7645 44.3889H61.2358ZM5.176 48.5411C4.55522 48.5411 4.0502 48.1266 4.0502 47.6172C4.0502 47.1076 4.55522 46.693 5.176 46.693H67.8244C68.4452 46.693 68.9502 47.1076 68.9502 47.6172C68.9502 48.1266 68.4452 48.5411 67.8244 48.5411H5.176ZM61.2509 50.3779C61.0622 50.5221 60.8656 50.6586 60.6618 50.7878H12.3386C12.1351 50.6586 11.9382 50.5221 11.7494 50.3779H61.2509ZM67.8245 54.4723H26.9654C26.3483 54.4723 25.848 54.8834 25.848 55.3907C25.848 55.898 26.3483 56.3091 26.9654 56.3091H61.2517C59.7309 57.4729 57.7017 58.1632 55.5291 58.1632H17.4712C15.2985 58.1632 13.2695 57.4729 11.7486 56.309H21.9002C22.5172 56.309 23.0175 55.8979 23.0175 55.3906C23.0175 54.8833 22.5172 54.4722 21.9002 54.4722H5.176C4.55522 54.4722 4.0502 54.0578 4.0502 53.5484C4.0502 53.0388 4.55522 52.6243 5.176 52.6243H67.8244V52.6245C68.4452 52.6245 68.9502 53.039 68.9502 53.5485C68.9503 54.0579 68.4453 54.4723 67.8245 54.4723Z" fill="#4E6682"/>
</svg>
