<svg width="74" height="60" viewBox="0 0 74 60" fill="none" xmlns="http://www.w3.org/2000/svg">
<g clip-path="url(#clip0_229_241)">
<path d="M55.8821 9.84521H53.6572V12.5944H55.8821V9.84521Z" fill="#4E6682"/>
<path d="M19.5406 8.05225H14.9424V9.84518H19.5406V8.05225Z" fill="#4E6682"/>
<path d="M19.5406 19.1687H14.9424V20.9616H19.5406V19.1687Z" fill="#4E6682"/>
<path d="M21.766 10.921H12.7178V12.714H21.766V10.921Z" fill="#4E6682"/>
<path d="M21.766 16.2999H12.7178V18.0929H21.766V16.2999Z" fill="#4E6682"/>
<path d="M23.9905 13.5508H9.30566V15.3437H23.9905V13.5508Z" fill="#4E6682"/>
<path d="M29.6924 13.5512C29.1087 8.42904 23.7497 4.40356 17.2438 4.40356C10.3494 4.40356 4.74023 8.92369 4.74023 14.4796C4.74023 20.0355 10.3494 24.5556 17.2438 24.5556C23.7769 24.5556 29.1521 20.4965 29.6985 15.3442H35.5605V13.5512H29.6924ZM17.2438 22.7627C11.5762 22.7627 6.96515 19.0469 6.96515 14.4796C6.96515 9.91228 11.5762 6.1965 17.2438 6.1965C22.9116 6.1965 27.5227 9.91228 27.5227 14.4796C27.5224 19.047 22.9115 22.7627 17.2438 22.7627Z" fill="#4E6682"/>
<path d="M40.1595 13.5508H37.7861V15.3437H40.1595V13.5508Z" fill="#4E6682"/>
<path d="M16.1292 31.1221H13.7559V32.915H16.1292V31.1221Z" fill="#4E6682"/>
<path d="M16.1292 34.5884H13.7559V36.3813H16.1292V34.5884Z" fill="#4E6682"/>
<path d="M16.1292 38.2939H13.7559V40.0869H16.1292V38.2939Z" fill="#4E6682"/>
<path d="M17.3227 0.761353H17.2551C7.8559 0.761353 0.207355 6.91194 0.188431 14.4797H0.183594V44.7723C0.183594 49.0155 4.18451 52.5188 9.30579 52.9637V54.9096H11.5308V52.9619C16.6433 52.5101 20.6347 49.0104 20.6347 44.7724V27.9265L65.0786 23.5352V5.42434L17.3227 0.761353ZM10.4092 51.2195C7.63137 51.2195 5.18065 50.0722 3.74571 48.3355H17.0726C15.6376 50.0722 13.1868 51.2195 10.4092 51.2195ZM18.3305 45.6687C18.2787 45.9669 18.2013 46.2585 18.1004 46.5423H2.71769C2.61696 46.2585 2.53941 45.9669 2.48762 45.6687H4.71339V43.8758H2.40851V21.282C5.34556 25.4421 10.8988 28.2539 17.2528 28.2539H17.3203L18.4093 28.1464V43.8759H6.99166V45.6688H18.3305V45.6687ZM55.882 22.6325V13.5513H53.6571V22.851L17.1865 26.4345C9.03416 26.4058 2.4132 21.054 2.4132 14.4797C2.4132 7.90547 9.03516 2.5536 17.1888 2.52494L53.657 6.10829V9.00907H55.8819V6.32694L59.4418 6.67666V22.2827H59.442L55.882 22.6325ZM62.8536 21.9475L61.6669 22.064V6.89531L62.8536 7.01204V21.9475Z" fill="#4E6682"/>
<path d="M11.5218 55.7876H9.29688C9.29688 57.8005 11.329 59.438 13.8268 59.438V57.6451C12.5558 57.645 11.5218 56.8117 11.5218 55.7876Z" fill="#4E6682"/>
<path d="M73.0025 35.069C72.6719 32.2769 69.6377 30.0861 66.074 30.0485C65.5278 27.9863 63.2502 26.4346 60.5306 26.4346H53.7224V28.2539H48.0203V30.0468H53.7224V31.9593H48.0203V33.7523H53.7224V35.5712H60.5306C63.3006 35.5712 65.6115 33.9615 66.1019 31.8422C68.4805 31.8917 70.5694 33.3959 70.7875 35.2393C70.9134 36.3029 70.4735 37.3667 69.5806 38.1582C68.7116 38.9286 67.4889 39.3704 66.2261 39.3704H33.4363C29.7644 39.3704 26.7459 41.4781 26.4151 44.2731C26.2313 45.8266 26.8397 47.3113 28.1282 48.4534C29.4149 49.5937 31.2604 50.2478 33.1916 50.2478H43.199C45.6724 50.2478 47.7835 51.7149 48.0051 53.5875C48.1307 54.6491 47.7132 55.6653 46.8295 56.4485C45.9617 57.2176 44.7277 57.6587 43.4435 57.6587H14.9424V59.4517H43.4435C45.3532 59.4517 47.1874 58.7966 48.4757 57.6546C49.7674 56.5097 50.4031 54.9653 50.22 53.4171C49.8908 50.6344 46.8066 48.4546 43.1988 48.4546H33.1915C31.8857 48.4546 30.6403 48.0145 29.7745 47.247C28.9128 46.4833 28.5064 45.4877 28.6301 44.4432C28.8476 42.6039 30.9589 41.1632 33.4362 41.1632H66.226C68.1142 41.1632 69.9369 40.5075 71.2269 39.3641C72.5406 38.1998 73.1876 36.6344 73.0025 35.069ZM60.5304 33.7781H55.9473V28.2275H60.5304C62.4294 28.2275 63.9745 29.4725 63.9745 31.0028C63.9745 32.5332 62.4295 33.7781 60.5304 33.7781Z" fill="#4E6682"/>
</g>
<defs>
<clipPath id="clip0_229_241">
<rect width="72.8501" height="58.7059" fill="white" transform="translate(0.183594 0.753662)"/>
</clipPath>
</defs>
</svg>
