<svg width="83" height="71" viewBox="0 0 83 71" fill="none" xmlns="http://www.w3.org/2000/svg">
<g clip-path="url(#clip0_229_285)">
<path d="M80.9666 53.6786C80.1691 52.9984 79.1307 52.599 78.0157 52.5361L75.9767 44.1069C75.8286 43.494 75.1255 43.0998 74.4073 43.2262C73.6886 43.3526 73.2263 43.9519 73.3746 44.5648L75.3004 52.5263H24.2445C23.5108 52.5263 22.9161 53.0337 22.9161 53.6593C22.9161 54.2849 23.5109 54.7923 24.2445 54.7923H76.9241C76.926 54.7923 76.9279 54.7924 76.9301 54.7924C76.9319 54.7924 76.9335 54.7923 76.9353 54.7923H77.7055C78.2279 54.7923 78.719 54.9656 79.0884 55.2806C79.4577 55.5956 79.6609 56.0149 79.6609 56.4613C79.6609 57.3809 78.7836 58.1292 77.7055 58.1292H14.988C14.4655 58.1292 13.9733 57.9553 13.6021 57.6396C13.2337 57.3262 13.031 56.9079 13.031 56.4613C13.031 55.5408 13.9089 54.792 14.9882 54.792H19.7368C20.4705 54.792 21.0651 54.2846 21.0651 53.659C21.0651 53.0334 20.4703 52.526 19.7368 52.526H9.19589L12.513 16.874C12.7014 14.8485 14.715 13.2616 17.0975 13.2616H56.5054C61.8917 13.2616 66.5917 16.5278 67.6808 21.0273L72.4199 40.6178C72.568 41.2306 73.2698 41.6248 73.9894 41.4986C74.708 41.3721 75.1703 40.7729 75.022 40.16L73.6978 34.6865H76.9309C77.3447 34.6865 77.7352 34.522 77.9865 34.2416C78.2378 33.961 78.3217 33.5967 78.2128 33.2561L75.7012 25.3808C75.5439 24.8876 75.0188 24.5452 74.4193 24.5452H71.2443L70.2825 20.5697C68.9397 15.022 63.1455 10.9956 56.5053 10.9956H17.0975C13.3387 10.9956 10.1615 13.4992 9.86432 16.6949L9.64327 19.0705H1.57446C0.840791 19.0705 0.246094 19.5778 0.246094 20.2035C0.246094 20.8291 0.840951 21.3364 1.57446 21.3364H9.43248L6.43367 53.5697C6.40434 53.8849 6.53081 54.196 6.78231 54.4283C7.03366 54.6605 7.38759 54.7925 7.75803 54.7925H10.811C10.5313 55.2996 10.3741 55.8652 10.3741 56.4619C10.3741 57.515 10.8543 58.5034 11.7262 59.2449C12.599 59.9872 13.7574 60.3958 14.988 60.3958H77.7053C80.2484 60.3958 82.3175 58.6311 82.3175 56.462C82.3175 55.4098 81.8378 54.4215 80.9666 53.6786ZM73.4044 26.8112L75.1933 32.4205H73.1499L71.793 26.8112H73.4044Z" fill="#4E6682"/>
<path d="M58.5353 34.7802L56.9729 26.2579C56.2078 22.093 52.0661 19.0702 47.125 19.0702H30.2665C29.5328 19.0702 28.9381 19.5776 28.9381 20.2032C28.9381 20.8288 29.533 21.3362 30.2665 21.3362H47.125C50.7491 21.3362 53.7869 23.5536 54.3481 26.6082L55.6707 33.822H51.7888V30.4716C51.7888 29.8458 51.1939 29.3386 50.4604 29.3386H32.8332C32.0995 29.3386 31.5048 29.8458 31.5048 30.4716V33.8223H19.3258V21.3363H25.3073C26.041 21.3363 26.6357 20.8289 26.6357 20.2033C26.6357 19.5777 26.0408 19.0703 25.3073 19.0703H17.9973C17.2636 19.0703 16.6689 19.5777 16.6689 20.2033V34.9554C16.6689 35.5811 17.2638 36.0884 17.9973 36.0884H57.2228C57.6109 36.0884 57.9797 35.9436 58.232 35.692C58.4843 35.4405 58.5953 35.1073 58.5353 34.7802ZM49.1319 33.8223H34.1615V31.6045H49.1319V33.8223Z" fill="#4E6682"/>
</g>
<defs>
<clipPath id="clip0_229_285">
<rect width="82.0716" height="70" fill="white" transform="translate(0.246094 0.695679)"/>
</clipPath>
</defs>
</svg>
