<svg width="39" height="43" viewBox="0 0 39 43" fill="none" xmlns="http://www.w3.org/2000/svg">
<path d="M19.6888 42C30.0103 42 38.3776 32.8218 38.3776 21.5C38.3776 10.1782 30.0103 1 19.6888 1C9.36726 1 1 10.1782 1 21.5C1 32.8218 9.36726 42 19.6888 42Z" stroke="#395F7D" stroke-miterlimit="10"/>
<path d="M19.6885 42C26.4588 42 31.9473 32.8218 31.9473 21.5C31.9473 10.1782 26.4588 1 19.6885 1C12.9181 1 7.42969 10.1782 7.42969 21.5C7.42969 32.8218 12.9181 42 19.6885 42Z" stroke="#395F7D" stroke-miterlimit="10"/>
<path d="M19.6876 42C22.6686 42 25.0851 32.8218 25.0851 21.5C25.0851 10.1782 22.6686 1 19.6876 1C16.7066 1 14.29 10.1782 14.29 21.5C14.29 32.8218 16.7066 42 19.6876 42Z" stroke="#395F7D" stroke-miterlimit="10"/>
<path d="M1.56152 21.4999H37.8152" stroke="#395F7D" stroke-miterlimit="10"/>
<path d="M34.9532 9.67325C31.5683 13.1138 26.0009 15.3502 19.6885 15.3502C13.3892 15.3502 7.80872 13.0995 4.42383 9.67325" stroke="#395F7D" stroke-miterlimit="10"/>
<path d="M4.42383 33.1407C7.80872 29.7001 13.3762 27.4637 19.6885 27.4637C25.9878 27.4637 31.5683 29.7144 34.9532 33.1407" stroke="#395F7D" stroke-miterlimit="10"/>
</svg>
