<svg width="120" height="50" viewBox="0 0 120 50" fill="none" xmlns="http://www.w3.org/2000/svg">
<path d="M16.2772 25.652C17.0118 25.652 17.5242 25.594 17.8142 25.478C18.1235 25.362 18.2782 25.0623 18.2782 24.579C18.2782 24.0957 17.7658 22.4523 16.7412 19.649H7.89618C7.06484 22.1043 6.64918 23.651 6.64918 24.289C6.64918 24.9077 6.80384 25.2943 7.11318 25.449C7.44184 25.5843 8.02184 25.652 8.85318 25.652L8.91118 26H2.38618L2.44418 25.652C3.00484 25.652 3.43984 25.6037 3.74918 25.507C4.07784 25.4103 4.42584 25.159 4.79318 24.753C5.17984 24.3277 5.54718 23.7187 5.89518 22.926C6.24318 22.1333 6.65884 21.0217 7.14218 19.591L9.72318 12.138C10.6318 9.50867 11.0862 7.91367 11.0862 7.353C11.0862 6.79233 10.9508 6.43467 10.6802 6.28C10.4095 6.106 9.88751 6.019 9.11418 6.019L9.05618 5.7H13.8412L18.9742 19.591C19.8442 21.8917 20.4242 23.3513 20.7142 23.97C21.0235 24.5887 21.3135 24.985 21.5842 25.159C22.0675 25.4877 22.6765 25.652 23.4112 25.652L23.4692 26H16.2192L16.2772 25.652ZM12.2172 7.266L8.12818 18.953H16.5092L12.2172 7.266ZM31.4811 5.7C36.6044 5.7 39.1661 7.65267 39.1661 11.558C39.1661 13.2787 38.5571 14.69 37.3391 15.792C36.1404 16.894 34.7098 17.445 33.0471 17.445C31.3844 17.445 29.9731 17.1743 28.8131 16.633V19.446C28.8131 21.5147 28.8711 22.926 28.9871 23.68C29.1224 24.434 29.3061 24.9077 29.5381 25.101C29.9828 25.4683 30.6884 25.652 31.6551 25.652L31.7131 26H23.8831L23.9411 25.652C24.9078 25.652 25.6134 25.4683 26.0581 25.101C26.5414 24.695 26.7831 22.81 26.7831 19.446V12.254C26.7831 10.1853 26.7154 8.774 26.5801 8.02C26.4641 7.266 26.2901 6.79233 26.0581 6.599C25.6134 6.23167 24.9078 6.048 23.9411 6.048L23.8831 5.7H31.4811ZM28.8131 6.367V15.908C29.8184 16.4493 30.9978 16.72 32.3511 16.72C33.7238 16.72 34.8258 16.2947 35.6571 15.444C36.4884 14.574 36.9041 13.2787 36.9041 11.558C36.9041 9.412 36.2081 7.98133 34.8161 7.266C33.6754 6.66667 32.3028 6.367 30.6981 6.367H28.8131ZM51.5643 25.652C52.299 25.652 52.8113 25.594 53.1013 25.478C53.4106 25.362 53.5653 25.0623 53.5653 24.579C53.5653 24.0957 53.053 22.4523 52.0283 19.649H43.1833C42.352 22.1043 41.9363 23.651 41.9363 24.289C41.9363 24.9077 42.091 25.2943 42.4003 25.449C42.729 25.5843 43.309 25.652 44.1403 25.652L44.1983 26H37.6733L37.7313 25.652C38.292 25.652 38.727 25.6037 39.0363 25.507C39.365 25.4103 39.713 25.159 40.0803 24.753C40.467 24.3277 40.8343 23.7187 41.1823 22.926C41.5303 22.1333 41.946 21.0217 42.4293 19.591L45.0103 12.138C45.919 9.50867 46.3733 7.91367 46.3733 7.353C46.3733 6.79233 46.238 6.43467 45.9673 6.28C45.6966 6.106 45.1746 6.019 44.4013 6.019L44.3433 5.7H49.1283L54.2613 19.591C55.1313 21.8917 55.7113 23.3513 56.0013 23.97C56.3106 24.5887 56.6006 24.985 56.8713 25.159C57.3546 25.4877 57.9636 25.652 58.6983 25.652L58.7563 26H51.5063L51.5643 25.652ZM47.5043 7.266L43.4153 18.953H51.7963L47.5043 7.266ZM73.9892 26C73.5059 26 73.0225 25.7583 72.5392 25.275C72.0752 24.7723 71.6499 24.1537 71.2632 23.419C70.8959 22.6843 70.4609 21.8917 69.9582 21.041C69.4555 20.171 68.9529 19.359 68.4502 18.605C67.9475 17.851 67.3095 17.213 66.5362 16.691C65.7629 16.169 64.9412 15.8887 64.0712 15.85V19.446C64.0712 21.534 64.1292 22.955 64.2452 23.709C64.3805 24.4437 64.5642 24.9077 64.7962 25.101C65.2602 25.4683 65.9755 25.652 66.9422 25.652L67.0002 26H59.2282L59.2862 25.652C60.2335 25.652 60.9295 25.478 61.3742 25.13C61.7415 24.84 61.9542 23.8927 62.0122 22.288C62.0509 21.65 62.0702 20.7027 62.0702 19.446V12.109C62.0702 9.963 62.0122 8.542 61.8962 7.846C61.7802 7.15 61.6062 6.715 61.3742 6.541C60.9295 6.21233 60.2335 6.048 59.2862 6.048L59.2282 5.7H65.9562C70.8282 5.7 73.2642 7.34333 73.2642 10.63C73.2642 12.0413 72.7615 13.2303 71.7562 14.197C70.7702 15.1443 69.5715 15.6953 68.1602 15.85C69.5715 16.6813 70.8765 18.2087 72.0752 20.432C72.5392 21.302 73.0322 22.1333 73.5542 22.926C74.6949 24.7433 76.1642 25.652 77.9622 25.652L78.0202 26H73.9892ZM64.0712 6.367V15.27H65.8982C67.3675 15.27 68.5855 14.893 69.5522 14.139C70.5189 13.385 71.0022 12.2637 71.0022 10.775C71.0022 7.83633 69.3202 6.367 65.9562 6.367H64.0712ZM77.0165 5.7H93.7205V9.876L93.4305 9.818C93.4305 7.45933 91.0912 6.28 86.4125 6.28V19.446C86.4125 22.3073 86.5769 24.0473 86.9055 24.666C87.0215 24.898 87.2245 25.101 87.5145 25.275C87.8045 25.449 88.1139 25.5553 88.4425 25.594C88.7712 25.6327 89.2255 25.652 89.8055 25.652L89.8635 26H80.9315L80.9895 25.652C81.5695 25.652 82.0239 25.6423 82.3525 25.623C82.7005 25.5843 83.0099 25.4683 83.2805 25.275C83.5705 25.0817 83.7735 24.8787 83.8895 24.666C84.0249 24.4533 84.1409 24.0763 84.2375 23.535C84.3342 22.8777 84.3825 21.5147 84.3825 19.446V6.28C79.7039 6.28 77.3645 7.45933 77.3645 9.818L77.0165 9.876V5.7ZM105.275 5.439C108.388 5.439 110.872 6.396 112.728 8.31C114.604 10.2047 115.541 12.6697 115.541 15.705C115.541 18.721 114.633 21.244 112.815 23.274C111.017 25.2847 108.572 26.29 105.478 26.29C102.385 26.29 99.8911 25.275 97.9965 23.245C96.1211 21.215 95.1835 18.692 95.1835 15.676C95.1835 12.6407 96.0825 10.1757 97.8805 8.281C99.6978 6.38633 102.163 5.439 105.275 5.439ZM105.449 25.623C107.924 25.623 109.799 24.7337 111.075 22.955C112.371 21.157 113.018 18.7983 113.018 15.879C113.018 12.9597 112.342 10.601 110.988 8.803C109.635 7.005 107.721 6.106 105.246 6.106C102.791 6.106 100.916 6.99533 99.6205 8.774C98.3445 10.5527 97.7065 12.9113 97.7065 15.85C97.7065 18.7693 98.3831 21.128 99.7365 22.926C101.09 24.724 102.994 25.623 105.449 25.623Z" fill="#AA8453"/>
<path d="M4.78707 39C4.72707 39 4.69707 38.97 4.69707 38.91V32.79C4.69707 32.73 4.72707 32.7 4.78707 32.7H5.24607C5.30607 32.7 5.33607 32.73 5.33607 32.79V38.406C5.33607 38.43 5.34807 38.442 5.37207 38.442H8.54907C8.60907 38.442 8.63907 38.472 8.63907 38.532V38.91C8.63907 38.97 8.60907 39 8.54907 39H4.78707ZM16.3823 39.072C15.9623 39.072 15.5903 38.988 15.2663 38.82C14.9423 38.652 14.6903 38.418 14.5103 38.118C14.3303 37.812 14.2403 37.458 14.2403 37.056V32.79C14.2403 32.73 14.2703 32.7 14.3303 32.7H14.7893C14.8493 32.7 14.8793 32.73 14.8793 32.79V37.074C14.8793 37.5 15.0173 37.848 15.2933 38.118C15.5693 38.382 15.9323 38.514 16.3823 38.514C16.8323 38.514 17.1953 38.382 17.4713 38.118C17.7473 37.848 17.8853 37.5 17.8853 37.074V32.79C17.8853 32.73 17.9153 32.7 17.9753 32.7H18.4343C18.4943 32.7 18.5243 32.73 18.5243 32.79V37.056C18.5243 37.458 18.4343 37.812 18.2543 38.118C18.0803 38.418 17.8313 38.652 17.5073 38.82C17.1833 38.988 16.8083 39.072 16.3823 39.072ZM24.2162 39C24.1802 39 24.1562 38.991 24.1442 38.973C24.1382 38.949 24.1442 38.922 24.1622 38.892L26.0522 35.877C26.0642 35.859 26.0642 35.841 26.0522 35.823L24.1622 32.808C24.1502 32.784 24.1442 32.766 24.1442 32.754C24.1442 32.718 24.1682 32.7 24.2162 32.7H24.7202C24.7622 32.7 24.7982 32.721 24.8282 32.763L26.4302 35.328C26.4362 35.334 26.4452 35.337 26.4572 35.337C26.4692 35.337 26.4782 35.334 26.4842 35.328L28.0772 32.763C28.1072 32.721 28.1432 32.7 28.1852 32.7H28.6802C28.7162 32.7 28.7372 32.712 28.7432 32.736C28.7552 32.754 28.7522 32.778 28.7342 32.808L26.8532 35.832C26.8472 35.85 26.8472 35.868 26.8532 35.886L28.7342 38.892C28.7462 38.916 28.7522 38.934 28.7522 38.946C28.7522 38.982 28.7282 39 28.6802 39H28.1852C28.1432 39 28.1072 38.979 28.0772 38.937L26.4842 36.381C26.4782 36.369 26.4692 36.363 26.4572 36.363C26.4452 36.363 26.4362 36.369 26.4302 36.381L24.8282 38.937C24.7982 38.979 24.7622 39 24.7202 39H24.2162ZM36.5181 39.072C36.0981 39.072 35.7261 38.988 35.4021 38.82C35.0781 38.652 34.8261 38.418 34.6461 38.118C34.4661 37.812 34.3761 37.458 34.3761 37.056V32.79C34.3761 32.73 34.4061 32.7 34.4661 32.7H34.9251C34.9851 32.7 35.0151 32.73 35.0151 32.79V37.074C35.0151 37.5 35.1531 37.848 35.4291 38.118C35.7051 38.382 36.0681 38.514 36.5181 38.514C36.9681 38.514 37.3311 38.382 37.6071 38.118C37.8831 37.848 38.0211 37.5 38.0211 37.074V32.79C38.0211 32.73 38.0511 32.7 38.1111 32.7H38.5701C38.6301 32.7 38.6601 32.73 38.6601 32.79V37.056C38.6601 37.458 38.5701 37.812 38.3901 38.118C38.2161 38.418 37.9671 38.652 37.6431 38.82C37.3191 38.988 36.9441 39.072 36.5181 39.072ZM48.456 39C48.402 39 48.366 38.979 48.348 38.937L47.025 36.147C47.019 36.129 47.007 36.12 46.989 36.12H45.459C45.435 36.12 45.423 36.132 45.423 36.156V38.91C45.423 38.97 45.393 39 45.333 39H44.874C44.814 39 44.784 38.97 44.784 38.91V32.79C44.784 32.73 44.814 32.7 44.874 32.7H47.205C47.721 32.7 48.138 32.862 48.456 33.186C48.774 33.504 48.933 33.921 48.933 34.437C48.933 34.857 48.819 35.214 48.591 35.508C48.363 35.802 48.054 35.991 47.664 36.075C47.64 36.087 47.634 36.102 47.646 36.12L48.996 38.892C49.002 38.904 49.005 38.919 49.005 38.937C49.005 38.979 48.981 39 48.933 39H48.456ZM45.459 33.258C45.435 33.258 45.423 33.27 45.423 33.294V35.571C45.423 35.595 45.435 35.607 45.459 35.607H47.133C47.481 35.607 47.763 35.499 47.979 35.283C48.195 35.067 48.303 34.785 48.303 34.437C48.303 34.089 48.195 33.807 47.979 33.591C47.763 33.369 47.481 33.258 47.133 33.258H45.459ZM56.1653 38.991C56.1053 38.991 56.0753 38.961 56.0753 38.901V36.237C56.0753 36.213 56.0723 36.198 56.0663 36.192L54.1943 32.808C54.1823 32.784 54.1763 32.766 54.1763 32.754C54.1763 32.718 54.2033 32.7 54.2573 32.7H54.7433C54.7973 32.7 54.8333 32.721 54.8513 32.763L56.3633 35.508C56.3693 35.514 56.3783 35.517 56.3903 35.517C56.4023 35.517 56.4113 35.514 56.4173 35.508L57.9383 32.763C57.9623 32.721 57.9983 32.7 58.0463 32.7H58.5323C58.5683 32.7 58.5923 32.712 58.6043 32.736C58.6163 32.754 58.6133 32.778 58.5953 32.808L56.7233 36.192C56.7173 36.198 56.7143 36.213 56.7143 36.237V38.901C56.7143 38.961 56.6843 38.991 56.6243 38.991H56.1653ZM74.2695 39C74.2155 39 74.1795 38.979 74.1615 38.937L72.8385 36.147C72.8325 36.129 72.8205 36.12 72.8025 36.12H71.2725C71.2485 36.12 71.2365 36.132 71.2365 36.156V38.91C71.2365 38.97 71.2065 39 71.1465 39H70.6875C70.6275 39 70.5975 38.97 70.5975 38.91V32.79C70.5975 32.73 70.6275 32.7 70.6875 32.7H73.0185C73.5345 32.7 73.9515 32.862 74.2695 33.186C74.5875 33.504 74.7465 33.921 74.7465 34.437C74.7465 34.857 74.6325 35.214 74.4045 35.508C74.1765 35.802 73.8675 35.991 73.4775 36.075C73.4535 36.087 73.4475 36.102 73.4595 36.12L74.8095 38.892C74.8155 38.904 74.8185 38.919 74.8185 38.937C74.8185 38.979 74.7945 39 74.7465 39H74.2695ZM71.2725 33.258C71.2485 33.258 71.2365 33.27 71.2365 33.294V35.571C71.2365 35.595 71.2485 35.607 71.2725 35.607H72.9465C73.2945 35.607 73.5765 35.499 73.7925 35.283C74.0085 35.067 74.1165 34.785 74.1165 34.437C74.1165 34.089 74.0085 33.807 73.7925 33.591C73.5765 33.369 73.2945 33.258 72.9465 33.258H71.2725ZM82.5522 39.072C82.1262 39.072 81.7512 38.985 81.4272 38.811C81.1032 38.637 80.8512 38.394 80.6712 38.082C80.4972 37.764 80.4102 37.398 80.4102 36.984V34.716C80.4102 34.302 80.4972 33.939 80.6712 33.627C80.8512 33.309 81.1032 33.063 81.4272 32.889C81.7512 32.715 82.1262 32.628 82.5522 32.628C82.9782 32.628 83.3532 32.715 83.6772 32.889C84.0072 33.063 84.2592 33.309 84.4332 33.627C84.6132 33.939 84.7032 34.302 84.7032 34.716V36.984C84.7032 37.398 84.6132 37.764 84.4332 38.082C84.2592 38.394 84.0072 38.637 83.6772 38.811C83.3532 38.985 82.9782 39.072 82.5522 39.072ZM82.5522 38.523C83.0082 38.523 83.3742 38.385 83.6502 38.109C83.9262 37.833 84.0642 37.467 84.0642 37.011V34.707C84.0642 34.251 83.9262 33.885 83.6502 33.609C83.3742 33.327 83.0082 33.186 82.5522 33.186C82.1022 33.186 81.7392 33.327 81.4632 33.609C81.1872 33.885 81.0492 34.251 81.0492 34.707V37.011C81.0492 37.467 81.1872 37.833 81.4632 38.109C81.7392 38.385 82.1022 38.523 82.5522 38.523ZM92.6508 39.072C92.2248 39.072 91.8498 38.985 91.5258 38.811C91.2018 38.637 90.9498 38.394 90.7698 38.082C90.5958 37.764 90.5088 37.398 90.5088 36.984V34.716C90.5088 34.302 90.5958 33.939 90.7698 33.627C90.9498 33.309 91.2018 33.063 91.5258 32.889C91.8498 32.715 92.2248 32.628 92.6508 32.628C93.0768 32.628 93.4518 32.715 93.7758 32.889C94.1058 33.063 94.3578 33.309 94.5318 33.627C94.7118 33.939 94.8018 34.302 94.8018 34.716V36.984C94.8018 37.398 94.7118 37.764 94.5318 38.082C94.3578 38.394 94.1058 38.637 93.7758 38.811C93.4518 38.985 93.0768 39.072 92.6508 39.072ZM92.6508 38.523C93.1068 38.523 93.4728 38.385 93.7488 38.109C94.0248 37.833 94.1628 37.467 94.1628 37.011V34.707C94.1628 34.251 94.0248 33.885 93.7488 33.609C93.4728 33.327 93.1068 33.186 92.6508 33.186C92.2008 33.186 91.8378 33.327 91.5618 33.609C91.2858 33.885 91.1478 34.251 91.1478 34.707V37.011C91.1478 37.467 91.2858 37.833 91.5618 38.109C91.8378 38.385 92.2008 38.523 92.6508 38.523ZM104.891 32.763C104.921 32.721 104.957 32.7 104.999 32.7H105.467C105.527 32.7 105.557 32.73 105.557 32.79V38.91C105.557 38.97 105.527 39 105.467 39H105.008C104.948 39 104.918 38.97 104.918 38.91V33.906C104.918 33.888 104.912 33.876 104.9 33.87C104.888 33.864 104.879 33.87 104.873 33.888L103.406 36.138C103.376 36.18 103.34 36.201 103.298 36.201H103.064C103.022 36.201 102.986 36.183 102.956 36.147L101.489 33.915C101.483 33.897 101.474 33.891 101.462 33.897C101.45 33.903 101.444 33.915 101.444 33.933V38.91C101.444 38.97 101.414 39 101.354 39H100.895C100.835 39 100.805 38.97 100.805 38.91V32.79C100.805 32.73 100.835 32.7 100.895 32.7H101.363C101.411 32.7 101.447 32.718 101.471 32.754L103.163 35.319C103.169 35.325 103.178 35.328 103.19 35.328C103.202 35.328 103.211 35.325 103.217 35.319L104.891 32.763ZM113.557 39.072C112.879 39.072 112.342 38.919 111.946 38.613C111.556 38.307 111.361 37.899 111.361 37.389V37.11C111.361 37.05 111.391 37.02 111.451 37.02H111.892C111.952 37.02 111.982 37.05 111.982 37.11V37.353C111.982 37.701 112.126 37.983 112.414 38.199C112.702 38.409 113.101 38.514 113.611 38.514C114.073 38.514 114.424 38.418 114.664 38.226C114.904 38.028 115.024 37.767 115.024 37.443C115.024 37.233 114.967 37.053 114.853 36.903C114.745 36.753 114.574 36.612 114.34 36.48C114.112 36.348 113.788 36.195 113.368 36.021C112.918 35.841 112.567 35.685 112.315 35.553C112.069 35.415 111.868 35.241 111.712 35.031C111.562 34.815 111.487 34.545 111.487 34.221C111.487 33.717 111.661 33.327 112.009 33.051C112.363 32.769 112.846 32.628 113.458 32.628C114.124 32.628 114.649 32.784 115.033 33.096C115.417 33.408 115.609 33.822 115.609 34.338V34.536C115.609 34.596 115.579 34.626 115.519 34.626H115.069C115.009 34.626 114.979 34.596 114.979 34.536V34.374C114.979 34.026 114.841 33.741 114.565 33.519C114.295 33.297 113.917 33.186 113.431 33.186C113.005 33.186 112.678 33.273 112.45 33.447C112.222 33.621 112.108 33.873 112.108 34.203C112.108 34.419 112.162 34.599 112.27 34.743C112.384 34.881 112.543 35.004 112.747 35.112C112.957 35.214 113.278 35.349 113.71 35.517C114.148 35.697 114.499 35.865 114.763 36.021C115.033 36.177 115.249 36.369 115.411 36.597C115.579 36.819 115.663 37.092 115.663 37.416C115.663 37.92 115.477 38.322 115.105 38.622C114.733 38.922 114.217 39.072 113.557 39.072Z" fill="#222222"/>
</svg>
