<svg width="58" height="43" viewBox="0 0 58 43" fill="none" xmlns="http://www.w3.org/2000/svg">
<path fill-rule="evenodd" clip-rule="evenodd" d="M12.1619 13.3014C11.1398 14.2367 10.5564 15.7113 10.5564 17.8328C10.5564 20.963 11.8264 22.4633 12.8241 23.3396C13.0506 23.5386 13.2659 23.7078 13.4722 23.8699C13.5044 23.8952 13.5363 23.9203 13.5681 23.9453C13.787 24.1179 14.0303 24.3119 14.2047 24.5105C14.3871 24.7183 14.5601 25.0034 14.499 25.3481C14.4398 25.6824 14.1818 25.9478 13.8929 26.1592C12.899 26.8867 11.6812 27.4153 10.4728 27.8575C9.86693 28.0793 9.24925 28.2842 8.65563 28.481L8.64158 28.4857C8.04761 28.6826 7.47915 28.8711 6.94013 29.0683C5.84464 29.4693 4.95432 29.8779 4.33643 30.3824C3.90737 30.7327 3.5973 31.1391 3.45908 31.6501H30.2863C30.1481 31.1391 29.838 30.7327 29.4089 30.3824C28.791 29.8779 27.9007 29.4693 26.8052 29.0683C26.2662 28.8711 25.6977 28.6826 25.1037 28.4857L25.0897 28.481C24.4961 28.2842 23.8784 28.0793 23.2725 27.8575C22.0642 27.4153 20.8464 26.8867 19.8524 26.1592C19.5636 25.9478 19.3055 25.6824 19.2463 25.3481C19.1853 25.0034 19.3583 24.7183 19.5407 24.5105C19.7151 24.3119 19.9584 24.1179 20.1773 23.9453C20.209 23.9203 20.241 23.8952 20.2732 23.8699C20.4794 23.7078 20.6948 23.5386 20.9213 23.3396C21.919 22.4633 23.1889 20.963 23.1889 17.8328C23.1889 15.7113 22.6056 14.2367 21.5835 13.3014C20.5908 12.393 19.0754 11.8961 16.8727 11.8961C14.67 11.8961 13.1546 12.393 12.1619 13.3014ZM10.8167 12.5138C12.2163 11.233 14.2897 10.6352 16.8727 10.6352C19.4556 10.6352 21.529 11.233 22.9287 12.5138C24.2989 13.7677 24.9116 15.5766 24.9116 17.8328C24.9116 21.2697 23.4899 23.0531 22.2446 24.1469C21.9853 24.3747 21.7358 24.5706 21.5303 24.732C21.499 24.7566 21.4687 24.7803 21.4396 24.8033C21.2029 24.9899 21.0676 25.1037 20.9897 25.1924C20.9879 25.1944 20.9862 25.1964 20.9845 25.1983C21.0037 25.2159 21.0312 25.2389 21.0705 25.2676C21.8709 25.8535 22.8961 26.31 24.0429 26.7297C24.6146 26.939 25.2025 27.1342 25.8005 27.3324L25.8293 27.342C26.4126 27.5354 27.0068 27.7324 27.5756 27.9406C28.7231 28.3605 29.8515 28.8548 30.6915 29.5407C31.5574 30.2476 32.0891 31.135 32.0891 32.2806V32.911H1.65625V32.2806C1.65625 31.135 2.18796 30.2476 3.05382 29.5407C3.89387 28.8548 5.02225 28.3605 6.16975 27.9406C6.73859 27.7324 7.33276 27.5354 7.91603 27.342L7.94489 27.3324C8.54286 27.1342 9.1308 26.939 9.70246 26.7297C10.8493 26.31 11.8744 25.8535 12.6749 25.2676C12.7141 25.2389 12.7417 25.2158 12.7608 25.1983C12.7592 25.1964 12.7575 25.1944 12.7557 25.1924C12.6777 25.1037 12.5425 24.9899 12.3058 24.8033C12.2767 24.7803 12.2464 24.7566 12.2151 24.732C12.0096 24.5706 11.7601 24.3747 11.5007 24.1469C10.2555 23.0531 8.83381 21.2697 8.83381 17.8328C8.83381 15.5766 9.44642 13.7677 10.8167 12.5138ZM36.0871 13.3014C35.065 14.2367 34.4816 15.7113 34.4816 17.8328C34.4816 20.963 35.7516 22.4633 36.7493 23.3396C36.9758 23.5386 37.1911 23.7078 37.3974 23.8699C37.4296 23.8952 37.4615 23.9203 37.4933 23.9453C37.7122 24.1179 37.9555 24.3119 38.1299 24.5105C38.3123 24.7183 38.4853 25.0034 38.4243 25.3481C38.3651 25.6824 38.107 25.9478 37.8182 26.1592C36.7174 26.9649 35.3389 27.5284 33.9991 28.0007C33.2108 28.2786 32.2162 28.5756 31.0232 28.8921L30.2134 29.1069L29.6265 27.9215L30.4362 27.7067C31.5987 27.3983 32.5345 27.1175 33.2516 26.8647C34.5469 26.4081 35.7105 25.9187 36.6001 25.2676C36.6394 25.2389 36.6669 25.2158 36.686 25.1983C36.6844 25.1964 36.6827 25.1944 36.6809 25.1924C36.603 25.1037 36.4677 24.9899 36.231 24.8033C36.2019 24.7803 36.1716 24.7566 36.1403 24.732C35.9348 24.5706 35.6853 24.3747 35.4259 24.1469C34.1807 23.0531 32.759 21.2697 32.759 17.8328C32.759 15.5766 33.3716 13.7677 34.7419 12.5138C36.1415 11.233 38.215 10.6352 40.7979 10.6352C43.3808 10.6352 45.4543 11.233 46.8539 12.5138C48.2242 13.7677 48.8368 15.5766 48.8368 17.8328C48.8368 21.2697 47.4151 23.0531 46.1698 24.1469C45.9105 24.3747 45.6609 24.5707 45.4555 24.732C45.4242 24.7566 45.3939 24.7804 45.3648 24.8033C45.1281 24.9899 44.9929 25.1037 44.9149 25.1924C44.9131 25.1944 44.9114 25.1964 44.9098 25.1983C44.9289 25.2158 44.9564 25.2389 44.9957 25.2676C45.7961 25.8535 46.8213 26.31 47.9681 26.7297C48.5398 26.939 49.1277 27.1342 49.7257 27.3324L49.7545 27.342C50.3378 27.5354 50.932 27.7324 51.5008 27.9406C52.6483 28.3605 53.7767 28.8548 54.6168 29.5407C55.4826 30.2476 56.0143 31.135 56.0143 32.2806V32.911H54.2917V32.2806C54.2917 31.456 53.9262 30.8658 53.3342 30.3824C52.7163 29.8779 51.8259 29.4693 50.7305 29.0683C50.1914 28.8711 49.6229 28.6826 49.0289 28.4857L49.015 28.481C48.4213 28.2842 47.8037 28.0793 47.1978 27.8575C45.9894 27.4153 44.7716 26.8867 43.7776 26.1592C43.4888 25.9478 43.2308 25.6824 43.1715 25.3481C43.1105 25.0034 43.2835 24.7183 43.4659 24.5105C43.6403 24.3119 43.8836 24.1179 44.1025 23.9453C44.1342 23.9203 44.1662 23.8952 44.1984 23.8699C44.4047 23.7078 44.62 23.5386 44.8465 23.3396C45.8442 22.4633 47.1142 20.963 47.1142 17.8328C47.1142 15.7113 46.5308 14.2367 45.5087 13.3014C44.516 12.393 43.0006 11.8961 40.7979 11.8961C38.5952 11.8961 37.0798 12.393 36.0871 13.3014Z" fill="#33318C"/>
<path fill-rule="evenodd" clip-rule="evenodd" d="M31.5394 28.0846C31.7014 28.4119 31.4703 28.7735 31.0231 28.8921C30.6268 28.9972 29.9875 29.1587 29.1107 29.3754C28.66 29.4867 28.1713 29.3096 28.0191 28.9797C27.867 28.6498 28.109 28.2921 28.5597 28.1807C29.4355 27.9643 30.0592 27.8067 30.4361 27.7067C30.8833 27.588 31.3773 27.7572 31.5394 28.0846Z" fill="#33318C"/>
</svg>
