<svg width="40" height="40" viewBox="0 0 40 40" fill="none" xmlns="http://www.w3.org/2000/svg">
<circle cx="20" cy="20" r="19.5" stroke="white"/>
<path d="M23.8195 30C23.675 30 23.5294 29.9861 23.3844 29.9577C23.3804 29.9571 23.3764 29.9566 23.3725 29.9559C23.1626 29.9198 18.1882 29.0293 14.4481 25.2892C11.433 22.2742 10.416 18.4041 10.116 16.8565C10.0601 16.6724 10.028 16.4804 10.0206 16.2854C10.0183 16.2637 10.0177 16.242 10.0188 16.2203C10.0135 15.6124 10.2458 15.0429 10.675 14.6137L11.9464 13.3423C12.0208 13.2679 12.1218 13.226 12.227 13.226C12.3321 13.226 12.4331 13.2679 12.5075 13.3423L16.6219 17.4568C16.7769 17.6117 16.7769 17.863 16.6219 18.0178L15.3506 19.2892C15.3182 19.3217 15.2855 19.3524 15.2522 19.382C14.6584 19.9093 14.5432 20.8328 14.985 21.5295C15.4094 22.1987 15.8896 22.8029 16.4121 23.3254C17.0309 23.9441 17.7652 24.5048 18.5944 24.9913C19.2726 25.3893 20.1445 25.2617 20.715 24.6811L20.7288 24.6672L22.0003 23.3959C22.1553 23.2409 22.4063 23.2409 22.5613 23.3959L26.6757 27.5103C26.8307 27.6652 26.8307 27.9165 26.6757 28.0713L25.4043 29.3428C24.9786 29.7686 24.4088 30 23.8195 30ZM23.4877 29.1704C23.4986 29.1717 23.5096 29.1734 23.5204 29.1757C24.0021 29.2757 24.4967 29.1283 24.8433 28.7818L25.834 27.791L22.2808 24.2377L21.2785 25.24C20.455 26.0779 19.1851 26.2582 18.1929 25.676C17.3055 25.1553 16.5176 24.5533 15.8511 23.8867C15.2875 23.3231 14.7706 22.6732 14.315 21.9546C13.6672 20.9329 13.8439 19.5716 14.7262 18.7881C14.7486 18.7685 14.7696 18.7484 14.7903 18.7278L15.7806 17.7375L12.2271 14.1839L11.2361 15.1748C10.9552 15.4558 10.8048 15.8303 10.8126 16.2299C10.8129 16.2342 10.8131 16.2385 10.8132 16.2429C10.8171 16.3793 10.8396 16.5132 10.8798 16.6404C10.8844 16.655 10.8882 16.67 10.891 16.6851C11.1718 18.1461 12.1353 21.8542 15.0092 24.7282C18.4593 28.1783 23.1481 29.107 23.4877 29.1704ZM29.5849 21.0048C29.3658 21.0048 29.1881 20.8271 29.1881 20.608C29.1881 15.1964 24.7854 10.7935 19.3736 10.7935C19.1545 10.7935 18.9769 10.6159 18.9769 10.3968C18.9769 10.1777 19.1545 10 19.3736 10C25.223 10 29.9816 14.7587 29.9816 20.608C29.9816 20.8271 29.804 21.0048 29.5849 21.0048ZM27.1229 21.0048C26.9038 21.0048 26.7262 20.8271 26.7262 20.608C26.7262 16.5187 23.3994 13.1919 19.3102 13.1919C19.091 13.1919 18.9134 13.0142 18.9134 12.7951C18.9134 12.576 19.091 12.3984 19.3102 12.3984C23.8369 12.3984 27.5197 16.0812 27.5197 20.608C27.5197 20.8271 27.342 21.0048 27.1229 21.0048ZM24.6671 21.0048C24.448 21.0048 24.2704 20.8271 24.2704 20.608C24.2704 17.873 22.0452 15.6478 19.3102 15.6478C19.091 15.6478 18.9134 15.4701 18.9134 15.251C18.9134 15.0319 19.091 14.8543 19.3102 14.8543C22.4827 14.8543 25.0639 17.4353 25.0639 20.608C25.0639 20.8271 24.8862 21.0048 24.6671 21.0048Z" fill="white"/>
</svg>
