<svg width="69" height="75" viewBox="0 0 69 75" fill="none" xmlns="http://www.w3.org/2000/svg">
<g clip-path="url(#clip0_229_292)">
<path d="M66.88 7.61951H1.35932C0.608556 7.61951 0 8.28835 0 9.1135V55.9454C0 56.7706 0.608556 57.4394 1.35932 57.4394H7.50512L6.27122 65.6427C6.20604 66.0756 6.31747 66.5182 6.57576 66.8528C6.83406 67.1875 7.21311 67.3803 7.61241 67.3803H60.627C61.0265 67.3803 61.4054 67.1872 61.6637 66.8528C61.922 66.5182 62.0332 66.0756 61.9682 65.6427L60.7343 57.4394H66.8801C67.6307 57.4394 68.2394 56.7706 68.2394 55.9454V9.1135C68.2393 8.28835 67.6306 7.61951 66.88 7.61951ZM9.21484 64.3925L10.2606 57.4396H12.3308L11.9719 60.6869C11.9249 61.1114 12.0458 61.5375 12.3039 61.8577C12.5619 62.1778 12.9323 62.361 13.3213 62.361H54.9174C55.3065 62.361 55.6769 62.1778 55.9349 61.8577C56.1928 61.5375 56.3138 61.1112 56.2668 60.6869L55.908 57.4396H57.9781L59.0242 64.3925H9.21484ZM14.856 59.3727L15.0697 57.4394H53.1696L53.3831 59.3727H14.856ZM65.5206 54.4515H2.71864V10.6075H65.5205V54.4515H65.5206Z" fill="#4E6682"/>
<path d="M62.8019 12.0415H5.43745C4.68668 12.0415 4.07812 12.7104 4.07812 13.5355V51.5239C4.07812 52.349 4.68668 53.0179 5.43745 53.0179H62.8019C63.5525 53.0179 64.1612 52.349 64.1612 51.5239V13.5355C64.1612 12.7104 63.5525 12.0415 62.8019 12.0415ZM61.4426 50.0299H6.79677V15.0295H61.4426V50.0299Z" fill="#4E6682"/>
<path d="M42.4121 45.5076H41.7324C40.9817 45.5076 40.373 46.1764 40.373 47.0016C40.373 47.8267 40.9817 48.4956 41.7324 48.4956H42.4121C43.1627 48.4956 43.7714 47.8267 43.7714 47.0016C43.7714 46.1764 43.1627 45.5076 42.4121 45.5076Z" fill="#4E6682"/>
<path d="M58.3164 45.5076H47.3056C46.555 45.5076 45.9463 46.1764 45.9463 47.0016C45.9463 47.8267 46.555 48.4956 47.3056 48.4956H58.3164C59.067 48.4956 59.6757 47.8267 59.6757 47.0016C59.6757 46.1764 59.067 45.5076 58.3164 45.5076Z" fill="#4E6682"/>
</g>
<defs>
<clipPath id="clip0_229_292">
<rect width="68.2393" height="75" fill="white"/>
</clipPath>
</defs>
</svg>
