<svg width="82" height="70" viewBox="0 0 82 70" fill="none" xmlns="http://www.w3.org/2000/svg">
<path d="M69.6113 0H12.3884C8.97726 0 6.20215 2.369 6.20215 5.28095V68.6798C6.20215 69.4089 6.89462 70 7.74871 70H74.251C75.1051 70 75.7975 69.4089 75.7975 68.6798V5.28095C75.7975 2.369 73.0224 0 69.6113 0ZM9.29528 67.3595V13.2024H61.9107C62.7648 13.2024 63.4573 12.6112 63.4573 11.8821C63.4573 11.153 62.7648 10.5619 61.9107 10.5619H9.29528V5.28095C9.29528 3.82506 10.6829 2.64048 12.3884 2.64048H69.6113C71.3168 2.64048 72.7044 3.82506 72.7044 5.28095V10.5619H68.113C67.259 10.5619 66.5665 11.153 66.5665 11.8821C66.5665 12.6112 67.259 13.2024 68.113 13.2024H72.7044V67.3595H9.29528Z" fill="#4E6682"/>
<path d="M40.9999 18.4841C26.8941 18.4841 15.418 28.2806 15.418 40.3222C15.418 52.3638 26.8939 62.1603 40.9999 62.1603C55.1057 62.1603 66.5816 52.3638 66.5816 40.3222C66.5816 28.2806 55.1057 18.4841 40.9999 18.4841ZM40.9999 59.5198C28.5995 59.5198 18.5111 50.9077 18.5111 40.3222C18.5111 29.7367 28.5995 21.1246 40.9999 21.1246C50.4159 21.1246 58.4975 26.091 61.8427 33.1158H60.4286C59.7676 33.1158 59.131 33.2058 58.5335 33.3703C55.391 27.6033 48.5492 23.82 40.9999 23.82C30.3406 23.82 21.6688 31.2228 21.6688 40.3222C21.6688 49.4216 30.3406 56.8244 40.9999 56.8244C48.5494 56.8244 55.391 53.041 58.5335 47.2741C59.131 47.4386 59.7676 47.5286 60.4286 47.5286H61.8427C58.4975 54.5534 50.4159 59.5198 40.9999 59.5198ZM58.7057 44.4392C58.6763 44.4189 58.6456 44.3998 58.6143 44.3814C57.8412 43.901 57.3357 43.1247 57.3357 42.2476V38.3968C57.3357 37.5198 57.8412 36.7435 58.6143 36.263C58.6456 36.2445 58.6763 36.2253 58.7057 36.2052C59.1985 35.922 59.7912 35.7563 60.4286 35.7563H62.8441C63.264 37.2203 63.4885 38.7491 63.4885 40.3222C63.4885 41.8953 63.264 43.4241 62.8441 44.8881H60.4286C59.7912 44.8881 59.1983 44.7224 58.7057 44.4392ZM55.8985 45.8388C53.342 50.8641 47.4815 54.1839 40.9999 54.1839C32.0462 54.1839 24.7619 47.9656 24.7619 40.3222C24.7619 32.6788 32.0462 26.4605 40.9999 26.4605C47.4815 26.4605 53.342 29.7803 55.8985 34.8056C54.8718 35.7487 54.2423 37.0109 54.2423 38.3968V42.2476C54.2423 43.6335 54.8718 44.8957 55.8985 45.8388Z" fill="#4E6682"/>
<path d="M66.5182 6.61494C66.5182 5.16664 65.1377 3.98816 63.4411 3.98816C61.7446 3.98816 60.3643 5.16664 60.3643 6.61494C60.3643 8.06324 61.7446 9.24172 63.4411 9.24172C65.1377 9.24172 66.5182 8.06324 66.5182 6.61494Z" fill="#4E6682"/>
<path d="M54.2265 3.98816C52.5299 3.98816 51.1494 5.16664 51.1494 6.61494C51.1494 8.06324 52.5299 9.24172 54.2265 9.24172C55.9231 9.24172 57.3034 8.06324 57.3034 6.61494C57.3034 5.16664 55.9231 3.98816 54.2265 3.98816Z" fill="#4E6682"/>
<path d="M29.4647 5.29468H15.5456C14.6915 5.29468 13.999 5.88581 13.999 6.61492C13.999 7.34402 14.6915 7.93515 15.5456 7.93515H29.4647C30.3188 7.93515 31.0112 7.34402 31.0112 6.61492C31.0112 5.88581 30.3188 5.29468 29.4647 5.29468Z" fill="#4E6682"/>
<path d="M38.6159 5.29468H35.6354C34.7813 5.29468 34.0889 5.88581 34.0889 6.61492C34.0889 7.34402 34.7813 7.93515 35.6354 7.93515H38.6159C39.47 7.93515 40.1624 7.34402 40.1624 6.61492C40.1624 5.88581 39.47 5.29468 38.6159 5.29468Z" fill="#4E6682"/>
<path d="M40.9995 29.0461C33.7157 29.0461 27.79 34.1046 27.79 40.3223C27.79 41.0514 28.4825 41.6425 29.3366 41.6425C30.1907 41.6425 30.8832 41.0514 30.8832 40.3223C30.8832 35.5605 35.4214 31.6866 40.9995 31.6866C41.8535 31.6866 42.546 31.0955 42.546 30.3664C42.546 29.6373 41.8535 29.0461 40.9995 29.0461Z" fill="#4E6682"/>
</svg>
