<svg width="56" height="38" viewBox="0 0 56 38" fill="none" xmlns="http://www.w3.org/2000/svg">
<path d="M54.7516 11.3552C47.6207 4.51842 38.123 0.753662 28.0109 0.753662C17.8988 0.753662 8.40207 4.51748 1.27016 11.3552C0.885208 11.7242 0.885208 12.3207 1.27016 12.6897C1.65511 13.0587 2.27733 13.0587 2.66228 12.6897C9.42204 6.20874 18.4246 2.64029 28.0109 2.64029C37.5972 2.64029 46.5997 6.20874 53.3595 12.6888C53.5515 12.8728 53.8035 12.9653 54.0556 12.9653C54.3076 12.9653 54.5596 12.8728 54.7516 12.6888C55.1366 12.3207 55.1366 11.7233 54.7516 11.3552Z" fill="#71869F"/>
<path d="M7.05727 16.9018C6.67232 17.2708 6.67232 17.8673 7.05727 18.2363C7.24925 18.4204 7.50129 18.5129 7.75333 18.5129C8.00537 18.5129 8.25741 18.4204 8.44939 18.2363C19.2349 7.89623 36.7851 7.89623 47.5715 18.2363C47.9565 18.6054 48.5787 18.6054 48.9637 18.2363C49.3486 17.8673 49.3486 17.2708 48.9637 16.9018C37.4112 5.82745 18.6117 5.82556 7.05727 16.9018Z" fill="#71869F"/>
<path d="M28.011 16.4375C22.2761 16.4375 16.8908 18.5733 12.8454 22.4503C12.4604 22.8194 12.4604 23.4158 12.8454 23.7849C13.2303 24.1539 13.8525 24.1539 14.2375 23.7849C17.9107 20.2645 22.8019 18.3251 28.011 18.3251C33.2201 18.3251 38.1113 20.2645 41.7845 23.7849C41.9765 23.9689 42.2286 24.0614 42.4806 24.0614C42.7326 24.0614 42.9847 23.9689 43.1767 23.7849C43.5616 23.4158 43.5616 22.8194 43.1767 22.4503C39.1322 18.5733 33.7459 16.4375 28.011 16.4375Z" fill="#71869F"/>
<path d="M28.0112 25.3167C24.455 25.3167 21.5615 28.0904 21.5615 31.5003C21.5615 34.9102 24.455 37.684 28.0112 37.684C31.5682 37.684 34.4618 34.9102 34.4618 31.5003C34.4618 28.0904 31.5682 25.3167 28.0112 25.3167ZM28.0112 35.7955C25.54 35.7955 23.5306 33.8683 23.5306 31.4994C23.5306 29.1305 25.541 27.2033 28.0112 27.2033C30.4813 27.2033 32.4927 29.1305 32.4927 31.4994C32.4927 33.8683 30.4823 35.7955 28.0112 35.7955Z" fill="#71869F"/>
</svg>
