<svg width="29" height="36" viewBox="0 0 29 36" fill="none" xmlns="http://www.w3.org/2000/svg">
<g clip-path="url(#clip0_158_1865)">
<path d="M28.7125 33.1073L20.3942 22.6223C21.775 20.2998 22.6035 17.4275 22.6035 14.3089C22.6035 6.63992 17.6541 0.401398 11.5698 0.401398C5.48554 0.401398 0.536133 6.63992 0.536133 14.3089C0.536133 21.978 5.48554 28.2165 11.5698 28.2165C14.044 28.2165 16.3227 27.1721 18.1654 25.4317L26.4837 35.9166L28.7125 33.1073ZM1.58696 14.3089C1.58696 7.3704 6.06507 1.72593 11.5698 1.72593C17.0746 1.72593 21.5527 7.3704 21.5527 14.3089C21.5527 21.2475 17.0746 26.892 11.5698 26.892C6.06507 26.892 1.58696 21.2475 1.58696 14.3089ZM19.2236 24.3045C19.3171 24.1906 19.409 24.0747 19.4994 23.9568C19.5761 23.8568 19.6591 23.7647 19.7332 23.6621L27.2267 33.1073L26.4832 34.0444L18.9903 24.5985C19.0717 24.5051 19.1442 24.4005 19.2236 24.3045Z" fill="#AA8453"/>
</g>
<defs>
<clipPath id="clip0_158_1865">
<rect width="28.1764" height="35.5152" fill="white" transform="translate(0.536133 0.401398)"/>
</clipPath>
</defs>
</svg>
